HIERARCHY
ROOT pelvis
{
  OFFSET 0 100 0
  CHANNELS 6 Xposition Yposition Zposition Zrotation Xrotation Yrotation
  JOINT pelvis_right_femur
  {
    OFFSET -10.78128 -3.44521 -0.5502486
    CHANNELS 3 Zrotation Xrotation Yrotation
    JOINT right_femur_tibia
    {
      OFFSET -0.8047443 -44.0398 -0.1307829
      CHANNELS 3 Zrotation Xrotation Yrotation
      JOINT right_tibia_foot
      {
        OFFSET 3.006224 -47.83518 -5
        CHANNELS 3 Zrotation Xrotation Yrotation
        End Site
        {
          OFFSET 0 -5 15
        }
      }
    }
  }
  JOINT pelvis_left_femur
  {
    OFFSET 10.78128 -3.44521 -0.5502486
    CHANNELS 3 Zrotation Xrotation Yrotation
    JOINT left_femur_tibia
    {
      OFFSET 0.8047443 -44.0398 -0.1307829
      CHANNELS 3 Zrotation Xrotation Yrotation
      JOINT left_tibia_foot
      {
        OFFSET -4.370144 -48.10324 -4.275266
        CHANNELS 3 Zrotation Xrotation Yrotation
        End Site
        {
          OFFSET 0 -5 15
        }
      }
    }
  }
  JOINT pelvis_spine1
  {
    OFFSET 0 6.468898 -3.129235
    CHANNELS 3 Zrotation Xrotation Yrotation
    JOINT spine1
    {
      OFFSET 0 23.15396 4.99043
      CHANNELS 3 Zrotation Xrotation Yrotation
      JOINT spine2
      {
        OFFSET 0 20.79997 -5.064912
        CHANNELS 3 Zrotation Xrotation Yrotation
        JOINT neck
        {
          OFFSET 0 14.38658 9.616178
          CHANNELS 3 Zrotation Xrotation Yrotation
          End Site
          {
            OFFSET 0 20 0
          }
        }
      }
      JOINT right_manubrium
      {
        OFFSET -5.722621 16.35077 3.967754
        CHANNELS 3 Zrotation Xrotation Yrotation
        JOINT right_clavicle
        {
          OFFSET -13.16364 1.694482 -4.693211
          CHANNELS 3 Zrotation Xrotation Yrotation
          JOINT right_humerus
          {
            OFFSET -28.5034 -0.3100689 -2.792744
            CHANNELS 3 Zrotation Xrotation Yrotation
            JOINT right_radius
            {
              OFFSET -25.15693 0.02248979 -1.271978
              CHANNELS 3 Zrotation Xrotation Yrotation
              End Site
              {
                OFFSET -15 0 0
              }
            }
          }
        }
      }
      JOINT left_manubrium
      {
        OFFSET 5.722621 16.35077 3.967754
        CHANNELS 3 Zrotation Xrotation Yrotation
        JOINT left_clavicle
        {
          OFFSET 13.16364 1.694482 -4.693211
          CHANNELS 3 Zrotation Xrotation Yrotation
          JOINT left_humerus
          {
            OFFSET 29.39168 -1.063119 -2.237045
            CHANNELS 3 Zrotation Xrotation Yrotation
            JOINT left_radius
            {
              OFFSET 24.59957 -0.9528479 0.9047498
              CHANNELS 3 Zrotation Xrotation Yrotation
              End Site
              {
                OFFSET 15 -0 -0
              }
            }
          }
        }
      }
    }
  }
}
MOTION
Frames: 23
Frame Time: 0.0416666666667
320.7498 101.4551 3100.457 0.2169865 -3.590372 10.88415 5.829005 -20.39041 4.977341 -0 14.28161 -0 -1.373553 -0.7253052 -7.63193 -3.177961 14.78017 -7.160458 -0 42.34171 -0 -8.499752 -11.06528 11.60368 2.920322 -3.664384 9.52213 -0.186843 17.96776 -6.205387 1.837508 17.39517 -0.957734 -3.205757 -21.39075 4.143623 -6.609097 -36.35392 10.78129 92.90235 15.12689 -8.443012 -0 0 32.23903 -23.38784 19.43191 18.08884 -0.9703941 -20.51051 -8.0685 -92.98991 10.72457 42.36853 0 0 -14.2446 2.870153 11.13925 12.3237
321.5772 102.5562 3107.363 0.006391823 -4.474587 10.19067 6.597787 -15.79871 6.022067 -0 16.74255 -0 -2.259128 -2.888072 -7.240717 -2.654676 10.2851 -7.183752 -0 50.65939 -0 -8.574281 -7.785077 12.64554 2.549276 -4.039844 9.465778 -0.1672169 17.48907 -5.826818 1.707582 17.18645 -0.5898886 -2.91843 -21.17462 4.226364 -5.219309 -36.45671 11.04865 90.73661 14.93053 -6.891992 -0 0 33.82923 -24.1075 20.26565 19.15519 -0.4504667 -20.16949 -7.56412 -94.10116 11.11863 42.72032 0 0 -12.8527 2.296363 11.0683 12.75082
322.3606 103.9307 3113.763 0.2556024 -5.415753 9.344217 6.58182 -10.44219 6.183078 -0 17.2778 -0 -3.424985 -5.345867 -6.436416 -2.542163 4.096907 -7.250558 -0 57.27257 -0 -8.005609 -5.853038 13.93116 2.257641 -4.480328 9.225197 -0.03201856 17.10067 -5.528464 1.643273 17.11828 -0.1884466 -2.504749 -20.79492 4.308876 -3.602201 -36.09232 11.49575 88.60042 14.32084 -5.759476 -0 0 34.81779 -24.80651 21.24697 19.85879 0.2686205 -20.12841 -7.151201 -95.27373 11.45167 42.35776 0 0 -11.21907 1.993814 11.61183 12.54431
323.1259 105.3002 3119.638 0.8674854 -5.935433 8.592512 5.839688 -4.73799 5.523959 -0 15.74154 -0 -4.492894 -7.715064 -5.216756 -2.631899 -3.280308 -7.18427 -0 60.27319 -0 -7.202731 -5.393545 14.96529 2.119762 -4.903655 8.829388 0.2102273 16.81105 -5.330277 1.622378 17.15853 0.1876597 -2.02751 -20.31123 4.358535 -1.944032 -35.39071 12.04664 86.61873 13.38641 -5.081578 -0 0 35.33957 -25.44979 22.33277 20.20215 1.166282 -20.33827 -6.793327 -96.41425 11.63714 41.42643 0 0 -9.352615 2.122053 12.69297 11.51386
323.9123 106.3053 3125.177 1.497633 -5.983041 7.979387 4.928012 0.7853916 4.786794 -0 13.08225 -0 -4.511686 -9.567492 -3.871832 -2.223 -10.97551 -6.483497 -0 58.22876 -0 -6.658238 -5.647378 15.77628 2.088603 -5.228697 8.379517 0.4842553 16.5572 -5.190702 1.609972 17.26694 0.5134354 -1.560879 -19.81719 4.372602 -0.4541017 -34.56952 12.57178 84.87149 12.45535 -4.689868 -0 0 35.59406 -26.02069 23.31544 20.32897 2.107674 -20.61729 -6.45049 -97.40196 11.71991 40.26235 0 0 -7.487439 2.605689 13.94506 9.927129
324.7544 106.6326 3130.593 1.69912 -5.970937 7.353053 4.580514 5.607709 4.559004 -0 10.60514 -0 -3.479704 -10.93363 -2.838096 -0.7450925 -17.65634 -4.940758 -0 50.98656 -0 -6.320674 -5.763687 16.85511 2.000731 -5.392984 7.994914 0.6750711 16.22319 -5.022504 1.594636 17.44998 0.7820977 -1.177524 -19.35808 4.380885 0.7115427 -33.81406 12.95251 83.41095 11.97428 -4.256265 -0 0 35.6916 -26.46671 23.83337 20.4089 2.848779 -20.7031 -6.121646 -98.10808 11.8734 39.24715 0 0 -5.931279 3.080241 14.94333 8.483456
325.6701 106.2208 3135.999 1.399901 -6.095466 6.638311 4.811555 9.456747 4.377103 -0 9.106709 -0 -2.899044 -12.38984 -2.230635 1.184264 -22.09823 -3.339747 -0 40.5477 -0 -5.678041 -5.703116 18.16493 1.718246 -5.379725 7.739911 0.706231 15.74421 -4.765823 1.590613 17.74888 0.9998157 -0.9062493 -18.91505 4.416856 1.503078 -33.172 13.14573 82.26724 12.20279 -3.563475 -0 0 35.60083 -26.73299 23.63023 20.51082 3.211275 -20.44847 -5.839604 -98.46582 12.24761 38.56927 0 0 -4.845153 3.206304 15.497 7.76142
326.6826 105.2868 3141.483 0.9072354 -5.920386 5.897089 4.967898 12.44739 3.918887 -0 8.818551 -0 -3.071767 -14.2258 -1.617024 2.552473 -24.81485 -2.451421 -0 30.29494 -0 -4.846567 -5.674626 19.03827 1.276823 -5.238288 7.578505 0.6005353 15.24038 -4.468431 1.61854 18.1835 1.201453 -0.679346 -18.46939 4.487707 1.976387 -32.50639 13.21918 81.51192 12.97877 -2.854601 -0 0 35.13034 -26.84564 22.84029 20.53556 3.265045 -20.02914 -5.664261 -98.53505 12.81624 38.05278 0 0 -4.168716 3.06223 15.75369 7.655619
327.8349 104.1157 3147.175 0.469565 -5.116015 5.195246 4.674748 14.81522 3.524937 -0 9.590023 -0 -2.997123 -15.96483 -0.7375216 3.149559 -26.84413 -2.156195 -0 22.17441 -0 -4.226297 -5.655601 19.27592 0.8589619 -5.054804 7.418922 0.4554406 14.91866 -4.241827 1.684245 18.69149 1.412206 -0.4132684 -18.06175 4.571369 2.235642 -31.69879 13.2849 81.22428 13.83047 -2.591709 -0 0 34.18146 -26.88046 21.91423 20.3559 3.238945 -19.78201 -5.643074 -98.46522 13.39024 37.41622 0 0 -3.73608 2.993039 16.00761 7.622061
329.1485 102.9306 3153.215 0.2803672 -4.183187 4.560121 3.902232 16.82682 3.291946 -0 11.58386 -0 -2.498816 -16.49998 0.08259655 2.834626 -27.87939 -2.475512 -0 16.93344 -0 -3.937501 -5.787572 19.31878 0.5860093 -4.88405 7.224013 0.3369353 14.84096 -4.133449 1.771528 19.17729 1.618975 -0.1133364 -17.75223 4.647991 2.34385 -30.82539 13.38266 81.36884 14.44331 -2.888796 -0 0 32.9272 -26.88378 21.15611 19.99465 3.256305 -19.82844 -5.761334 -98.35243 13.82562 36.63105 0 0 -3.46836 3.154422 16.36688 7.387909
330.6077 101.9293 3159.686 0.4824026 -3.678234 4.024942 2.700202 18.59578 3.167501 -0 15.2862 -0 -1.965843 -14.9315 0.5145385 1.520598 -27.58596 -3.524724 -0 14.83629 -0 -3.902924 -6.236293 19.51912 0.4679047 -4.741841 7.009158 0.2550503 14.96172 -4.129418 1.862017 19.59401 1.806709 0.1830722 -17.56378 4.713919 2.321084 -29.99762 13.49869 81.8455 14.767 -3.614613 -0 0 31.56243 -26.87526 20.61463 19.53588 3.322407 -20.11687 -5.979118 -98.21441 14.09541 35.78996 0 0 -3.37056 3.522575 16.78361 6.966926
332.1771 101.3122 3166.558 1.057555 -3.739439 3.681741 1.263831 19.6728 3.181313 -0 21.18716 -0 -1.636947 -10.94342 0.4679006 -0.4642565 -25.99019 -5.019881 -0 15.34385 -0 -3.769848 -6.947506 19.82262 0.4813168 -4.631097 6.806011 0.198609 15.24156 -4.213997 1.945114 19.92581 1.966816 0.4454615 -17.50569 4.772798 2.153471 -29.28896 13.60993 82.60481 14.84569 -4.656968 -0 0 30.1841 -26.85641 20.24913 19.03416 3.400587 -20.5848 -6.275461 -98.02876 14.21452 34.97741 0 0 -3.505137 4.030729 17.17218 6.465578
333.824 101.2804 3173.678 1.80938 -4.166157 3.668839 -0.03337298 19.13661 3.389754 -0 29.52257 -0 -1.447733 -4.976083 -0.01419841 -2.527298 -23.15175 -6.422571 -0 17.30515 -0 -3.069871 -7.680459 19.88749 0.5955937 -4.549803 6.665103 0.1461846 15.66114 -4.385216 2.015755 20.15657 2.084757 0.6338451 -17.60079 4.832356 1.780291 -28.77699 13.68093 83.68217 14.76522 -5.951336 -0 0 28.83505 -26.79785 19.98197 18.51766 3.413263 -21.17556 -6.651979 -97.73303 14.21236 34.2948 0 0 -4.027668 4.554719 17.40143 6.102903
335.5155 101.9443 3180.779 2.44259 -4.709942 4.085812 -0.7561228 16.2848 3.729074 -0 39.51531 -0 -1.217835 1.441288 -0.8869723 -4.13149 -19.21417 -7.350731 -0 19.40437 -0 -1.763273 -8.30039 19.4651 0.7846684 -4.494046 6.650427 0.07598634 16.20798 -4.65425 2.075206 20.26125 2.130245 0.6900954 -17.8829 4.900324 1.100403 -28.55286 13.65971 85.18183 14.62362 -7.463858 -0 0 27.53066 -26.63168 19.71753 17.99158 3.25109 -21.83576 -7.124505 -97.22889 14.12314 33.85322 0 0 -5.183379 4.911425 17.31381 6.194298
337.2033 103.1538 3187.563 2.722965 -5.332885 4.909203 -0.7199796 11.33027 3.984017 -0 48.62013 -0 -0.881642 5.961061 -2.097525 -5.023282 -14.57142 -7.812057 -0 20.43713 -0 -0.5253163 -9.009873 18.72017 1.036997 -4.456596 6.797036 -0.0147691 16.84722 -5.026825 2.132922 20.23243 2.066635 0.5678088 -18.35088 4.974227 0.04216607 -28.64732 13.49624 87.16552 14.48712 -9.158378 -0 0 26.24622 -26.28435 19.37327 17.43413 2.844819 -22.52325 -7.695591 -96.43187 13.97287 33.67195 0 0 -7.158732 4.974725 16.83775 6.929303
338.8325 104.5053 3193.857 2.655572 -6.06618 5.985851 -0.2255813 5.19349 3.932673 -0 53.68918 -0 -0.6055819 7.252789 -3.459672 -5.296827 -9.663831 -8.015746 -0 19.84819 -0 -0.04176139 -10.11662 18.00265 1.358863 -4.432472 7.069363 -0.09549189 17.51011 -5.478086 2.200214 20.10222 1.874955 0.2766923 -18.92598 5.031649 -1.331102 -28.97071 13.18493 89.48988 14.33684 -10.94102 -0 0 24.96206 -25.74874 18.9523 16.81968 2.253585 -23.21056 -8.32067 -95.36847 13.75023 33.62375 0 0 -9.833546 4.82105 16.10295 8.099807
340.3614 105.6063 3199.676 2.42395 -6.702487 7.120628 0.2629232 -1.292304 3.482371 -0 53.53718 -0 -0.6943091 6.265242 -4.663265 -5.239081 -4.75252 -8.087858 -0 18.06747 -0 -0.2203448 -11.67585 17.36545 1.755177 -4.423298 7.405453 -0.1291569 18.13352 -5.956063 2.280872 19.90902 1.553603 -0.1386274 -19.49785 5.040083 -2.84929 -29.41971 12.77092 91.84956 14.10776 -12.63115 -0 0 23.77448 -25.08765 18.55388 16.16301 1.601118 -23.85015 -8.924887 -94.1895 13.40613 33.62163 0 0 -12.78584 4.621704 15.33581 9.294126
341.7747 106.232 3205.154 2.168134 -6.970971 8.168368 0.5324932 -7.586764 2.695833 -0 49.12778 -0 -1.186689 4.553786 -5.507003 -5.087245 -0.08250581 -8.087524 -0 15.88598 -0 -0.673023 -13.54623 16.64373 2.203809 -4.413318 7.76564 -0.1102836 18.6856 -6.407761 2.371163 19.68248 1.114141 -0.6380195 -19.99627 4.981705 -4.366436 -29.95533 12.31088 94.00363 13.80541 -14.04389 -0 0 22.82811 -24.3668 18.24615 15.50466 0.9535028 -24.3592 -9.455654 -93.05124 12.91711 33.71986 0 0 -15.56733 4.469728 14.67915 10.254
343.0813 106.2864 3210.463 1.960687 -6.810234 9.053774 0.5834475 -13.29536 1.718761 -0 41.87212 -0 -1.766764 2.844582 -6.010357 -4.96909 4.135533 -8.062064 -0 13.9099 -0 -1.265329 -15.57082 15.77556 2.657811 -4.362846 8.116454 -0.05872919 19.14204 -6.79229 2.460408 19.45477 0.59292 -1.180859 -20.3969 4.862311 -5.779431 -30.55823 11.85814 95.8251 13.51588 -15.05845 -0 0 22.21569 -23.63963 18.01619 14.88564 0.3296807 -24.65125 -9.884795 -92.05337 12.31939 33.99858 0 0 -17.83405 4.393827 14.18175 10.87544
344.3035 105.7708 3215.776 1.855416 -6.29314 9.758882 0.489568 -18.15478 0.7242769 -0 33.05245 -0 -2.072091 1.418817 -6.296715 -4.952192 7.820433 -8.006001 -0 12.59403 -0 -1.954597 -17.55777 14.82313 3.06446 -4.235126 8.424447 0.001287969 19.47142 -7.08175 2.530703 19.24669 0.04665001 -1.722581 -20.70321 4.702328 -6.991575 -31.21659 11.46306 97.22231 13.34145 -15.60065 -0 0 22.01725 -22.96593 17.83463 14.3651 -0.2508893 -24.66237 -10.18198 -91.26447 11.68436 34.51499 0 0 -19.33328 4.397361 13.83855 11.13041
345.467 104.7859 3221.26 1.865228 -5.538281 10.31098 0.3837186 -22.0344 -0.08368238 -0 24.02403 -0 -1.930543 0.5315276 -6.497539 -5.046352 10.9921 -7.869597 -0 12.35088 -0 -2.66633 -19.24508 13.88402 3.380899 -4.02279 8.669589 0.05018925 19.64356 -7.261701 2.561795 19.05555 -0.4629584 -2.222605 -20.93374 4.527607 -7.916714 -31.93135 11.16073 98.11386 13.3521 -15.63559 -0 0 22.31791 -22.413 17.6986 14.02814 -0.7559361 -24.37451 -10.3108 -90.73455 11.09133 35.30012 0 0 -19.93705 4.45834 13.60168 11.07006
346.5928 103.5244 3227.064 1.935293 -4.69946 10.76403 0.4592313 -24.8657 -0.4811468 -0 16.14346 -0 -1.409276 0.3462967 -6.726908 -5.185471 13.71054 -7.625225 -0 13.56601 -0 -3.400659 -20.34288 13.0269 3.582143 -3.760065 8.856326 0.07407882 19.64429 -7.328408 2.538939 18.85845 -0.8832652 -2.650801 -21.1105 4.363197 -8.502182 -32.70721 10.95637 98.44618 13.56003 -15.1767 -0 0 23.16994 -22.04302 17.63552 13.96824 -1.14834 -23.83124 -10.24541 -90.48938 10.61104 36.34676 0 0 -19.70049 4.520879 13.38786 10.84179
347.6897 102.2516 3233.298 1.948374 -3.937326 11.16731 0.9248738 -26.5375 -0.2687247 -0 10.57473 -0 -0.754726 0.7573106 -7.04704 -5.237879 15.97226 -7.327426 -0 16.55796 -0 -4.28489 -20.55806 12.27411 3.660734 -3.513525 9.011191 0.06349359 19.48574 -7.282513 2.458399 18.62548 -1.178314 -2.987495 -21.2502 4.228848 -8.738104 -33.5394 10.82633 98.21123 13.9185 -14.28281 -0 0 24.55289 -21.89941 17.69055 14.25729 -1.400266 -23.12625 -9.990224 -90.53041 10.29474 37.60594 0 0 -18.85599 4.500513 13.10079 10.6631
